<?xml version="1.0" standalone="no"?>
<!DOCTYPE svg PUBLIC "-//W3C//DTD SVG 1.1//EN" "http://www.w3.org/Graphics/SVG/1.1/DTD/svg11.dtd" >
<svg xmlns="http://www.w3.org/2000/svg" xmlns:xlink="http://www.w3.org/1999/xlink" version="1.1">
<metadata></metadata>
<defs>
<font id="blizzardlight_italic" horiz-adv-x="1227" vert-adv-y="2048" >
<font-face units-per-em="2048" ascent="1638" descent="-410" />
<missing-glyph horiz-adv-x="613" />
<glyph horiz-adv-x="0" vert-adv-y="0" />
<glyph horiz-adv-x="682" />
<glyph unicode=" " horiz-adv-x="613" vert-adv-y="2555" />
<glyph unicode="!" horiz-adv-x="717" vert-adv-y="2555" d="M289 400l173 1091h129l-211 -1091h-91zM280 184q42 0 74 -34q27 -28 27 -68q0 -47 -35 -77q-29 -26 -67 -26q-45 0 -76 33q-27 30 -27 70q0 45 34 75q30 27 70 27z" />
<glyph unicode="&#x22;" horiz-adv-x="547" vert-adv-y="2555" d="M178 869l92 639h106l-133 -639h-65zM423 869l93 639h106l-133 -639h-66z" />
<glyph unicode="#" vert-adv-y="2555" d="M401 622l46 262h-267l18 98h267l60 343h96l-61 -343h262l60 343h96l-61 -343h268l-18 -98h-267l-46 -262h267l-18 -98h-267l-63 -358h-95l62 358h-261l-63 -358h-96l64 358h-268l18 98h267zM496 622h262l47 262h-262z" />
<glyph unicode="$" vert-adv-y="2555" d="M594 727q-152 70 -195 96q-142 90 -142 254q0 118 65 211q122 171 402 177l37 216h112l-39 -220q186 -19 325 -121l-42 -118q-111 120 -301 141l-97 -557q162 -72 219 -108q150 -96 150 -260q0 -130 -73 -244q-126 -193 -442 -213l-32 -179h-110l31 178q-268 11 -420 127 l42 117q152 -141 395 -147zM616 851l90 516q-108 -6 -190 -44q-80 -38 -117 -113q-27 -57 -27 -117q0 -121 123 -188q26 -14 121 -54zM697 682l-106 -600q152 18 243 77q78 51 117 142q21 53 21 110q0 128 -123 202q-25 14 -152 69z" />
<glyph unicode="%" horiz-adv-x="1697" vert-adv-y="2555" d="M577 1512q133 0 196 -88q52 -74 52 -187q0 -103 -31 -217q-82 -291 -331 -291q-122 0 -187 68q-69 72 -69 205q0 106 31 218q82 292 339 292zM569 1439q-147 0 -212 -158q-23 -54 -40 -138q-16 -86 -16 -154q0 -187 165 -187q142 0 209 158q22 52 38 136q18 88 18 158 q0 185 -162 185zM456 0l776 1491h87l-778 -1491h-85zM1319 762q132 0 194 -88q53 -74 53 -187q0 -104 -32 -217q-81 -291 -331 -291q-122 0 -187 68q-70 73 -70 205q0 105 33 218q82 292 340 292zM1309 690q-147 0 -213 -159q-23 -55 -39 -138q-17 -85 -17 -154 q0 -187 166 -187q144 0 210 158q22 53 39 136q18 87 18 157q0 187 -164 187z" />
<glyph unicode="&#x26;" horiz-adv-x="1568" vert-adv-y="2555" d="M573 840q-30 63 -43 97q-35 94 -35 197q0 159 88 260q104 118 298 118q166 0 244 -85q65 -70 65 -185q0 -101 -58 -191q-78 -117 -258 -193q-58 -24 -141 -53l333 -485q208 237 328 647h122q-85 -259 -166 -409q-98 -179 -229 -319l165 -239h-141l-109 159 q-84 -70 -154 -107q-159 -84 -342 -84q-208 0 -323 111q-94 92 -94 242q0 148 78 269q84 133 257 207q44 19 115 43zM683 881q156 48 253 111q83 55 125 150q23 54 23 106q0 84 -60 130q-53 41 -151 41q-147 0 -219 -97q-53 -73 -53 -188q0 -82 34 -161q17 -37 39 -74z M620 766q-148 -52 -221 -106q-84 -63 -127 -159q-34 -78 -34 -163q0 -130 85 -200q90 -72 247 -72q202 0 413 171z" />
<glyph unicode="'" horiz-adv-x="301" vert-adv-y="2555" d="M178 869l92 639h106l-133 -639h-65z" />
<glyph unicode="(" horiz-adv-x="841" vert-adv-y="2555" d="M529 -303l-76 -45q-165 300 -165 654q0 462 223 892q114 220 283 416l69 -50q-157 -194 -260 -409q-93 -194 -140 -386q-59 -244 -59 -453q0 -332 125 -619z" />
<glyph unicode=")" horiz-adv-x="841" vert-adv-y="2555" d="M349 1569l76 45q166 -299 166 -652q0 -463 -223 -893q-114 -220 -283 -417l-69 50q157 195 260 408q93 196 140 388q59 244 59 453q0 332 -126 618z" />
<glyph unicode="*" vert-adv-y="2555" d="M727 1126l-261 -291l-95 77l306 283l-371 150l58 112l345 -191l46 376l124 -22l-87 -369l389 61l17 -124l-399 -15l190 -370l-115 -40z" />
<glyph unicode="+" vert-adv-y="2555" d="M156 713l17 94h439l78 441h101l-78 -441h439l-16 -94h-439l-77 -441h-103l78 441h-439z" />
<glyph unicode="," horiz-adv-x="613" vert-adv-y="2555" d="M57 -275l139 443h130l-190 -443h-79z" />
<glyph unicode="-" horiz-adv-x="739" vert-adv-y="2555" d="M94 607l17 98h579l-17 -98h-579z" />
<glyph unicode="." horiz-adv-x="613" vert-adv-y="2555" d="M229 184q42 0 74 -34q27 -28 27 -68q0 -47 -35 -77q-29 -26 -67 -26q-45 0 -76 33q-27 30 -27 70q0 45 34 75q30 27 70 27z" />
<glyph unicode="/" horiz-adv-x="1009" vert-adv-y="2555" d="M-19 0l1021 1491h104l-1021 -1491h-104z" />
<glyph unicode="0" vert-adv-y="2555" d="M775 1512q214 0 317 -125q83 -102 83 -311q0 -145 -50 -412q-70 -377 -210 -531q-138 -154 -378 -154q-210 0 -311 110q-97 107 -97 325q0 140 49 407q71 386 213 540q139 151 384 151zM771 1414q-222 0 -338 -180q-87 -133 -147 -468q-42 -231 -42 -365q0 -324 296 -324 q214 0 332 181q84 129 143 448q45 246 45 381q0 327 -289 327z" />
<glyph unicode="1" vert-adv-y="2555" d="M532 0l244 1380l-385 -129l19 109l398 140h100l-265 -1500h-111z" />
<glyph unicode="2" vert-adv-y="2555" d="M59 0l19 113l554 534q194 187 264 289q91 132 91 259q0 219 -271 219q-123 0 -259 -66q-71 -34 -125 -80v128q73 39 121 60q136 56 279 56q183 0 280 -82q90 -77 90 -225q0 -155 -104 -313q-86 -132 -286 -317l-513 -477h733l-18 -98h-855z" />
<glyph unicode="3" vert-adv-y="2555" d="M55 93l42 114q147 -130 359 -130q246 0 365 150q90 114 90 274q0 192 -146 252q-93 39 -272 39h-61l566 602h-658l17 97h870l-580 -611q379 -23 379 -367q0 -227 -135 -376q-144 -158 -428 -158q-243 0 -408 114z" />
<glyph unicode="4" vert-adv-y="2555" d="M760 400h-717l12 69l910 1022h99l-176 -993h250l-18 -98h-248l-71 -400h-111zM778 498l142 807l-713 -807h571z" />
<glyph unicode="5" vert-adv-y="2555" d="M105 93l42 115q141 -129 357 -129q271 0 374 187q68 126 68 279q0 273 -269 273q-109 0 -214 -52q-47 -23 -116 -65l-86 25l164 765h724l-16 -97h-615l-124 -562q38 21 46 25q112 59 266 59q185 0 273 -104q83 -99 83 -273q0 -132 -46 -247q-126 -311 -504 -311 q-235 0 -407 112z" />
<glyph unicode="6" vert-adv-y="2555" d="M422 858q132 77 284 77q187 0 283 -93q97 -93 97 -267q0 -212 -114 -383q-141 -213 -420 -213q-195 0 -302 87q-114 92 -114 286q0 315 298 688l360 451h131zM681 841q-242 0 -349 -176q-80 -134 -80 -315q0 -273 306 -273q224 0 331 185q81 140 81 312q0 267 -289 267z " />
<glyph unicode="7" vert-adv-y="2555" d="M1038 1394h-691l17 97h838l-841 -1491h-126z" />
<glyph unicode="8" vert-adv-y="2555" d="M424 800q-68 43 -100 89q-50 73 -50 180q0 186 122 312q130 131 377 131q393 0 393 -317q0 -277 -270 -404q214 -90 214 -319q0 -125 -50 -233q-121 -260 -520 -260q-469 0 -469 339q0 210 133 350q79 83 220 132zM775 1414q-214 0 -313 -123q-73 -93 -73 -231 q0 -99 59 -156q72 -69 220 -69q219 0 319 148q63 93 63 220q0 105 -72 158q-73 53 -203 53zM658 737q-162 0 -257 -44q-125 -60 -178 -193q-37 -91 -37 -186q0 -115 80 -173q57 -41 126 -53q69 -11 150 -11q158 0 245 41q126 57 175 186q32 84 32 179q0 254 -336 254z" />
<glyph unicode="9" vert-adv-y="2555" d="M880 633q-131 -77 -284 -77q-188 0 -284 94q-97 93 -97 266q0 213 114 383q141 213 421 213q195 0 302 -86q115 -93 115 -286q0 -314 -299 -689l-359 -451h-131zM748 1414q-229 0 -335 -185q-82 -141 -82 -311q0 -268 294 -268q239 0 346 177q42 69 64 170q16 75 16 144 q0 273 -303 273z" />
<glyph unicode=":" horiz-adv-x="613" vert-adv-y="2555" d="M271 184q43 0 74 -34q27 -28 27 -68q0 -47 -34 -77q-29 -26 -68 -26q-44 0 -76 33q-27 30 -27 70q0 45 35 75q30 27 69 27zM432 1089q42 0 73 -34q27 -29 27 -69q0 -46 -34 -76q-29 -26 -67 -26q-45 0 -76 33q-27 29 -27 70q0 45 34 75q30 27 70 27z" />
<glyph unicode=";" horiz-adv-x="613" vert-adv-y="2555" d="M96 -275l138 443h130l-189 -443h-79zM432 1089q42 0 73 -34q27 -29 27 -69q0 -46 -34 -76q-29 -26 -67 -26q-45 0 -76 33q-27 29 -27 70q0 45 34 75q30 27 70 27z" />
<glyph unicode="&#x3c;" vert-adv-y="2555" d="M285 757l782 -430l-18 -100l-892 495l14 79l1067 495l-19 -108z" />
<glyph unicode="=" vert-adv-y="2555" d="M181 858l17 94h979l-16 -94h-980zM130 569l17 93h979l-16 -93h-980z" />
<glyph unicode="&#x3e;" vert-adv-y="2555" d="M1023 765l-783 431l18 100l892 -495l-13 -79l-1067 -495l18 108z" />
<glyph unicode="?" horiz-adv-x="986" vert-adv-y="2555" d="M465 398h-96l5 35q26 142 79 209q47 60 207 206q92 84 121 119q87 108 87 237q0 215 -235 215q-121 0 -245 -55q-62 -26 -162 -91v113q217 126 415 126q343 0 343 -302q0 -148 -95 -265q-57 -69 -277 -268q-89 -79 -114 -140q-16 -41 -30 -117zM380 184q41 0 72 -34 q27 -28 27 -68q0 -47 -34 -77q-29 -26 -67 -26q-45 0 -76 33q-27 30 -27 70q0 43 30.5 72.5t74.5 29.5z" />
<glyph unicode="@" horiz-adv-x="1792" vert-adv-y="2555" d="M1246 1071h106l-155 -574q-16 -58 -16 -98q0 -68 74 -68q82 0 157 63q76 65 116 152q57 126 57 272q0 160 -61 291q-67 141 -213 215q-148 74 -338 74q-288 0 -477 -190q-111 -111 -166 -252q-71 -185 -71 -389q0 -587 640 -587q272 0 506 110l33 -90 q-241 -113 -540 -113q-281 0 -442 89q-305 168 -305 586q0 230 84 437q98 244 321 376q190 112 435 112q261 0 442 -123q141 -94 206 -256q54 -132 54 -284q0 -224 -109 -383q-133 -196 -339 -196q-128 0 -151 88q-5 21 -6 80q-56 -68 -105 -104q-88 -67 -208 -67 q-117 0 -172 66q-60 72 -60 189q0 177 86 344q130 252 356 252q105 0 171 -59q21 -18 47 -56zM984 1008q-132 0 -230 -149q-45 -67 -73 -156q-32 -101 -32 -189q0 -91 45 -135q41 -43 108 -43q149 0 253 160q38 60 69 140q41 106 41 192q0 73 -44 119q-55 61 -137 61z" />
<glyph unicode="A" horiz-adv-x="1387" vert-adv-y="2555" d="M1057 458h-753l-270 -458h-126l891 1491h113l371 -1491h-119zM1031 555l-190 822l-477 -822h667z" />
<glyph unicode="B" horiz-adv-x="1379" vert-adv-y="2555" d="M133 0l263 1491h491q223 0 327 -58q120 -69 120 -244q0 -105 -44 -197q-57 -118 -154 -169q-34 -17 -102 -36q104 -21 152 -68q71 -71 71 -223q0 -153 -73 -287q-65 -119 -184 -164q-114 -45 -308 -45h-559zM392 841h322q175 0 258 20q154 35 218 185q31 72 31 145 q0 125 -102 170q-72 33 -263 33h-366zM261 98h361q172 0 276 25q127 30 194 158q50 95 50 214q0 157 -114 210q-52 23 -128 32q-58 7 -181 7h-344z" />
<glyph unicode="C" horiz-adv-x="1261" vert-adv-y="2555" d="M1134 225v-123q-213 -123 -447 -123q-548 0 -548 551q0 195 59 392q171 590 715 590q238 0 422 -126l-42 -117q-134 145 -375 145q-213 0 -357 -110q-164 -126 -248 -395q-58 -185 -58 -367q0 -245 113 -359q104 -106 314 -106q246 0 452 148z" />
<glyph unicode="D" horiz-adv-x="1495" vert-adv-y="2555" d="M133 0l263 1491h408q334 0 479 -133t145 -422q0 -263 -117 -508q-118 -246 -333 -352q-155 -76 -406 -76h-439zM261 98h314q339 0 531 216q104 118 165 333q41 145 41 289q0 171 -48 266q-49 94 -161 144q-105 48 -350 48h-263z" />
<glyph unicode="E" horiz-adv-x="1283" vert-adv-y="2555" d="M133 0l263 1491h933l-18 -97h-821l-98 -553h750l-18 -97h-749l-114 -646h835l-18 -98h-945z" />
<glyph unicode="F" horiz-adv-x="1204" vert-adv-y="2555" d="M133 0l263 1491h901l-17 -97h-790l-98 -553h742l-18 -97h-741l-132 -744h-110z" />
<glyph unicode="G" horiz-adv-x="1419" vert-adv-y="2555" d="M807 622l18 98h467l-113 -636q-209 -105 -456 -105q-281 0 -423 129q-159 144 -159 432q0 208 69 419q98 296 307 436q176 117 422 117q256 0 448 -125l-41 -116q-146 143 -401 143q-225 0 -374 -110q-158 -116 -245 -361q-69 -191 -69 -385q0 -244 118 -367 q111 -114 344 -114q186 0 363 81l81 464h-356z" />
<glyph unicode="H" horiz-adv-x="1537" vert-adv-y="2555" d="M133 0l263 1491h110l-115 -656h863l116 656h110l-263 -1491h-110l130 737h-864l-130 -737h-110z" />
<glyph unicode="I" horiz-adv-x="563" vert-adv-y="2555" d="M133 0l263 1491h110l-263 -1491h-110z" />
<glyph unicode="J" horiz-adv-x="1001" vert-adv-y="2555" d="M841 1491h111l-170 -965q-30 -169 -55 -246q-102 -301 -453 -301q-237 0 -367 124l43 119q123 -149 322 -149q205 0 292 126q48 69 75 169q13 49 32 155z" />
<glyph unicode="K" horiz-adv-x="1266" vert-adv-y="2555" d="M133 0l263 1491h110l-114 -650l818 650h161l-870 -680l664 -811h-131l-649 800l-142 -800h-110z" />
<glyph unicode="L" horiz-adv-x="1080" vert-adv-y="2555" d="M133 0l263 1491h110l-245 -1393h705l-18 -98h-815z" />
<glyph unicode="M" horiz-adv-x="1839" vert-adv-y="2555" d="M133 0l263 1491h98l415 -1000l766 1000h108l-264 -1491h-110l226 1279l-748 -968h-11l-407 968l-226 -1279h-110z" />
<glyph unicode="N" horiz-adv-x="1565" vert-adv-y="2555" d="M133 0l263 1491h104l671 -1293l228 1293h109l-263 -1491h-98l-674 1312l-232 -1312h-108z" />
<glyph unicode="O" horiz-adv-x="1580" vert-adv-y="2555" d="M943 1512q182 0 320 -76q251 -137 251 -506q0 -179 -55 -360q-93 -303 -297 -458q-176 -133 -438 -133q-273 0 -416 130q-86 78 -127 205q-39 119 -39 249q0 176 57 357q91 302 297 455q182 137 447 137zM934 1414q-223 0 -385 -126q-165 -130 -240 -401 q-51 -183 -51 -356q0 -152 62 -264q107 -190 411 -190q368 0 543 332q60 114 97 289q28 137 28 259q0 135 -52 241q-57 117 -185 171q-106 45 -228 45z" />
<glyph unicode="P" horiz-adv-x="1312" vert-adv-y="2555" d="M133 0l263 1491h410q280 0 398 -87q118 -86 118 -288q0 -162 -76 -302q-69 -126 -182 -175q-156 -70 -419 -70h-301l-101 -569h-110zM362 667h281q215 0 326 41q118 45 179 164q58 110 58 240q0 162 -107 226q-90 56 -328 56h-281z" />
<glyph unicode="Q" horiz-adv-x="1580" vert-adv-y="2555" d="M1347 -61l-215 158q-168 -118 -411 -118q-270 0 -413 130q-86 78 -127 205q-39 118 -39 248q0 177 56 358q92 303 297 455q184 137 439 137q282 0 433 -153q147 -149 147 -427q0 -285 -125 -528q-75 -148 -179 -245l197 -147zM840 311l62 77l224 -166q120 112 181 266 q92 229 92 463q0 218 -115 335q-60 63 -157 96q-95 32 -199 32q-219 0 -379 -126q-165 -130 -240 -401q-51 -183 -51 -357q0 -151 62 -263q107 -190 412 -190q169 0 312 84z" />
<glyph unicode="R" horiz-adv-x="1389" vert-adv-y="2555" d="M355 628l-112 -628h-110l263 1491h403q292 0 406 -73q127 -82 127 -276q0 -132 -58 -248q-81 -163 -237 -215q-65 -22 -163 -36l318 -643h-125l-308 628h-404zM372 726h330q295 0 402 110q60 62 91 163q22 75 22 150q0 145 -114 202q-55 27 -132 36q-49 7 -151 7h-330z " />
<glyph unicode="S" horiz-adv-x="1210" vert-adv-y="2555" d="M24 106l43 117q160 -146 418 -146q273 0 393 139q81 95 81 215q0 107 -74 167q-47 38 -105 66q-41 17 -127 55q-225 97 -300 154q-108 79 -108 233q0 173 129 290q130 116 359 116q247 0 416 -126l-41 -117q-137 145 -378 145q-180 0 -277 -84q-92 -80 -92 -210 q0 -81 52 -137q38 -44 158 -94q277 -118 355 -168q148 -98 148 -260q0 -103 -46 -206q-128 -276 -543 -276q-293 0 -461 127z" />
<glyph unicode="T" horiz-adv-x="1124" vert-adv-y="2555" d="M413 0l245 1394h-490l18 97h1090l-17 -97h-489l-247 -1394h-110z" />
<glyph unicode="U" horiz-adv-x="1499" vert-adv-y="2555" d="M383 1491h110l-148 -836q-32 -186 -32 -298q0 -142 82 -208q90 -72 275 -72q296 0 411 183q66 106 117 395l147 836h111l-164 -933q-25 -142 -47 -206q-68 -204 -214 -291q-140 -82 -359 -82q-474 0 -474 376q0 88 26 238z" />
<glyph unicode="V" horiz-adv-x="1241" vert-adv-y="2555" d="M480 0l-308 1491h116l261 -1342l735 1342h124l-834 -1491h-94z" />
<glyph unicode="W" horiz-adv-x="1984" vert-adv-y="2555" d="M401 0l-209 1491h119l161 -1324l627 1324h109l167 -1330l628 1330h123l-731 -1491h-101l-165 1333l-629 -1333h-99z" />
<glyph unicode="X" horiz-adv-x="1313" vert-adv-y="2555" d="M636 794l-339 697h122l305 -625l530 625h134l-618 -712l378 -779h-123l-340 699l-623 -699h-128z" />
<glyph unicode="Y" horiz-adv-x="1161" vert-adv-y="2555" d="M433 0l92 520l-350 971h119l300 -867l606 867h125l-690 -971l-91 -520h-111z" />
<glyph unicode="Z" horiz-adv-x="1176" vert-adv-y="2555" d="M-85 0l1175 1394h-832l17 97h1028l-1178 -1393h899l-17 -98h-1092z" />
<glyph unicode="[" horiz-adv-x="841" vert-adv-y="2555" d="M842 1644l-14 -83h-188l-326 -1844h188l-14 -83h-295l355 2010h294z" />
<glyph unicode="\" horiz-adv-x="611" vert-adv-y="2555" d="M433 0l-275 1491h96l274 -1491h-95z" />
<glyph unicode="]" horiz-adv-x="841" vert-adv-y="2555" d="M37 -366l15 83h187l326 1844h-187l14 83h294l-354 -2010h-295z" />
<glyph unicode="^" vert-adv-y="2555" d="M769 1383l-493 -627h-112l613 763h22l344 -763h-100z" />
<glyph unicode="_" horiz-adv-x="1064" vert-adv-y="2555" d="M-246 -426l16 93h1220l-17 -93h-1219z" />
<glyph unicode="`" horiz-adv-x="1064" vert-adv-y="2555" d="M745 1233h-90l-183 254h162z" />
<glyph unicode="a" horiz-adv-x="1166" vert-adv-y="2555" d="M781 119q-49 -47 -82 -68q-112 -72 -274 -72q-357 0 -357 396q0 154 48 300q70 207 220 315q133 96 300 96q127 0 216 -38q25 -10 87 -46l18 63h90l-188 -1065h-86zM907 899q-101 93 -257 93q-250 0 -378 -241q-89 -169 -89 -373q0 -158 59 -230q61 -75 188 -75 q169 0 283 103q79 70 104 216z" />
<glyph unicode="b" vert-adv-y="2555" d="M120 0l263 1491h110l-94 -532q177 128 373 128q197 0 285 -109q75 -94 75 -282q0 -258 -115 -469q-64 -121 -143 -177q-99 -71 -260 -71q-188 0 -298 78q-30 21 -73 70l-35 -127h-88zM380 848l-82 -461q-10 -59 -10 -96q0 -93 91 -156q90 -62 224 -62q143 0 231 85 t144 279q38 137 38 262q0 148 -54 217q-59 77 -203 77q-185 0 -379 -145z" />
<glyph unicode="c" horiz-adv-x="1045" vert-adv-y="2555" d="M866 194v-117q-179 -98 -356 -98q-204 0 -309 110q-101 105 -101 297q0 134 42 274q70 231 236 344q121 82 284 82q199 0 351 -109l-41 -115q-119 130 -308 130q-227 0 -353 -215q-96 -163 -96 -370q0 -334 294 -334q116 0 239 53q65 29 118 68z" />
<glyph unicode="d" vert-adv-y="2555" d="M987 1008l85 483h112l-264 -1491h-87l9 119q-52 -47 -86 -68q-116 -72 -286 -72q-373 0 -373 397q0 154 50 300q71 207 226 315q137 96 309 96q178 0 305 -79zM968 899q-109 94 -272 94q-259 0 -391 -241q-93 -169 -93 -374q0 -156 63 -230q64 -75 199 -75q177 0 297 103 q83 72 108 216z" />
<glyph unicode="e" horiz-adv-x="1118" vert-adv-y="2555" d="M224 493q-9 -58 -9 -107q0 -160 86 -236q85 -77 240 -77q111 0 229 52q66 29 118 72v-120q-169 -98 -357 -98t-300 88q-131 101 -131 322q0 138 44 273q65 207 208 318q139 107 340 107q158 0 255 -63q103 -65 103 -202q0 -112 -57 -183q-54 -68 -210 -100 q-128 -26 -508 -43zM241 588q54 0 222 11q320 23 402 75q70 44 70 147q0 172 -249 172q-246 0 -366 -203q-50 -86 -79 -202z" />
<glyph unicode="f" horiz-adv-x="738" vert-adv-y="2555" d="M350 971h-217l17 94h217l16 85q33 188 111 272q93 100 258 100q123 0 226 -60l-45 -98q-74 64 -177 64q-123 0 -187 -76q-51 -60 -75 -199l-16 -88h303l-17 -94h-302l-143 -806q-33 -188 -65 -283q-64 -185 -196 -258q-73 -41 -196 -49l16 93q74 11 107 24 q113 47 170 238q29 95 52 228z" />
<glyph unicode="g" horiz-adv-x="1229" vert-adv-y="2555" d="M22 -364l46 104q174 -94 342 -94q236 0 329 149q47 75 72 215l23 132q-58 -60 -101 -88q-116 -75 -283 -75q-357 0 -357 364q0 144 47 300q138 443 538 443q176 0 324 -84l17 63h91l-179 -1012q-28 -160 -61 -242q-55 -141 -199 -206q-114 -52 -255 -52q-224 0 -394 83z M969 899q-126 93 -295 93q-157 0 -257 -90q-112 -102 -171 -308q-38 -136 -38 -258q0 -263 261 -263q163 0 296 116q94 83 117 212z" />
<glyph unicode="h" horiz-adv-x="1296" vert-adv-y="2555" d="M120 0l263 1491h110l-99 -562q248 158 465 158q146 0 221 -68q60 -55 60 -153q0 -69 -22 -192l-119 -674h-111l125 705q11 66 11 132q0 156 -181 156q-136 0 -308 -82q-84 -41 -161 -93l-144 -818h-110z" />
<glyph unicode="i" horiz-adv-x="536" vert-adv-y="2555" d="M120 0l187 1065h111l-188 -1065h-110zM416 1451q45 0 68 -27q21 -25 21 -65q0 -91 -91 -91q-92 0 -92 92q0 91 94 91z" />
<glyph unicode="j" horiz-adv-x="549" vert-adv-y="2555" d="M319 1065h112l-160 -900q-33 -188 -65 -283q-64 -185 -196 -258q-72 -41 -196 -50l16 94q74 11 108 24q112 47 169 238q29 95 52 228zM427 1451q44 0 68 -27q22 -24 22 -65q0 -91 -92 -91q-91 0 -91 92q0 91 93 91z" />
<glyph unicode="k" horiz-adv-x="1155" vert-adv-y="2555" d="M120 0l263 1491h110l-149 -844l600 418h177l-664 -443l537 -622h-142l-514 608l-108 -608h-110z" />
<glyph unicode="l" horiz-adv-x="536" vert-adv-y="2555" d="M120 0l263 1491h110l-263 -1491h-110z" />
<glyph unicode="m" horiz-adv-x="1942" vert-adv-y="2555" d="M120 0l187 1065h90l-12 -145q62 49 159 95q153 71 284 71q219 0 247 -178q78 61 176 107q154 71 284 71q134 0 199 -68q52 -55 52 -146q0 -72 -22 -198l-120 -674h-110l124 705q12 68 12 141q0 146 -152 146q-126 0 -287 -82q-85 -44 -149 -93l-145 -817h-110l125 705 q13 80 13 141q0 146 -152 146q-128 0 -289 -82q-79 -41 -150 -92l-144 -818h-110z" />
<glyph unicode="n" horiz-adv-x="1296" vert-adv-y="2555" d="M120 0l187 1065h90l-12 -145q65 48 166 93q167 73 308 73q146 0 221 -68q60 -55 60 -152q0 -69 -22 -192l-119 -674h-111l125 705q11 66 11 132q0 155 -181 155q-210 0 -469 -174l-144 -818h-110z" />
<glyph unicode="o" horiz-adv-x="1223" vert-adv-y="2555" d="M679 1087q211 0 330 -111q113 -108 113 -310q0 -166 -58 -325q-132 -362 -514 -362q-201 0 -314 92q-136 110 -136 330q0 166 58 324q132 362 521 362zM675 993q-248 0 -356 -186q-104 -180 -104 -405q0 -166 79 -244q87 -85 259 -85q242 0 350 186q104 180 104 405 q0 329 -332 329z" />
<glyph unicode="p" vert-adv-y="2555" d="M256 151l-102 -577h-110l263 1491h85l-9 -124q83 57 143 87q123 58 253 58q193 0 278 -107q72 -92 72 -278q0 -134 -41 -282q-62 -213 -173 -321q-123 -120 -327 -120q-164 0 -255 74q-39 31 -77 99zM375 829l-63 -364q-17 -93 -17 -144q0 -98 80 -172q85 -77 217 -77 q142 0 235 87q91 86 147 284q40 140 40 270q0 139 -50 202q-61 77 -193 77q-128 0 -256 -73q-57 -32 -140 -90z" />
<glyph unicode="q" vert-adv-y="2555" d="M736 -426l100 568q-57 -60 -102 -88q-117 -76 -285 -76q-357 0 -357 364q0 145 47 301q138 443 538 443q177 0 325 -84l17 63h91l-263 -1491h-111zM969 899q-126 93 -295 93q-158 0 -258 -90q-112 -102 -171 -309q-38 -135 -38 -258q0 -263 262 -263q163 0 296 117 q94 82 117 212z" />
<glyph unicode="r" horiz-adv-x="869" vert-adv-y="2555" d="M120 0l187 1065h91l-16 -167q49 53 81 82q119 106 264 106q119 0 217 -69l-46 -113q-69 88 -178 88q-115 0 -241 -115q-67 -62 -117 -131l-132 -746h-110z" />
<glyph unicode="s" horiz-adv-x="974" vert-adv-y="2555" d="M9 76l42 118q121 -121 318 -121q158 0 251 66q83 60 83 167q0 70 -49 109q-37 29 -168 88q-169 77 -228 126q-82 67 -82 178q0 124 93 202q93 77 253 77q189 0 343 -97l-40 -116q-120 119 -310 119q-113 0 -170 -51q-54 -48 -54 -124q0 -63 53 -109q48 -40 168 -92 q166 -72 224 -117q82 -62 82 -176q0 -164 -115 -256q-110 -88 -318 -88q-231 0 -376 97z" />
<glyph unicode="t" horiz-adv-x="777" vert-adv-y="2555" d="M354 971h-190l17 94h187l68 301h99l-53 -301h327l-17 -94h-327l-110 -624q-24 -136 -24 -186q0 -45 21 -64q23 -24 82 -24q87 0 176 45l3 -103q-94 -36 -196 -36t-152 32q-50 33 -50 109q0 65 21 181z" />
<glyph unicode="u" horiz-adv-x="1241" vert-adv-y="2555" d="M854 123q-166 -144 -393 -144q-301 0 -301 229q0 74 29 239l109 618h111l-122 -692q-17 -94 -17 -149q0 -151 194 -151q226 0 400 156l148 836h110l-187 -1065h-94z" />
<glyph unicode="v" horiz-adv-x="1069" vert-adv-y="2555" d="M397 0l-269 1065h114l217 -919l548 919h122l-653 -1065h-79z" />
<glyph unicode="w" horiz-adv-x="1705" vert-adv-y="2555" d="M350 0l-204 1065h109l158 -919l489 919h83l163 -919l482 919h118l-581 -1065h-79l-166 932l-492 -932h-80z" />
<glyph unicode="x" horiz-adv-x="1078" vert-adv-y="2555" d="M482 560l-293 505h121l251 -434l386 434h138l-478 -507l323 -558h-120l-283 488l-441 -488h-137z" />
<glyph unicode="y" horiz-adv-x="1061" vert-adv-y="2555" d="M392 -5l-264 1070h113l223 -944l541 944h116l-867 -1491h-123z" />
<glyph unicode="z" horiz-adv-x="1020" vert-adv-y="2555" d="M-34 0l862 971h-604l16 94h800l-862 -971h673l-17 -94h-868z" />
<glyph unicode="{" horiz-adv-x="841" vert-adv-y="2555" d="M368 700q116 -40 116 -159q0 -38 -25 -179l-59 -331q-21 -120 -21 -175q0 -82 56 -113q45 -24 129 -24h61l-15 -83h-48q-154 0 -219 51q-71 55 -71 169q0 55 31 228l46 264q29 166 29 196q0 62 -66 99q-41 22 -102 22h-35l13 79h37q99 0 165 57q25 21 37 46.5t23 82.5 q4 20 25 130l34 187q26 150 48 209q45 118 162 160q77 28 196 28h50l-14 -83h-61q-138 0 -193 -65q-38 -44 -62 -145q-8 -33 -19 -102l-38 -212q-28 -155 -42 -191q-46 -110 -168 -146z" />
<glyph unicode="|" horiz-adv-x="1064" vert-adv-y="2555" d="M480 -437v1928h107v-1928h-107z" />
<glyph unicode="}" horiz-adv-x="841" vert-adv-y="2555" d="M534 708q-118 40 -118 157q0 34 27 180l35 204q22 121 22 177q0 80 -56 110q-46 25 -129 25h-61l14 83h49q154 0 219 -50q70 -56 70 -164q0 -64 -30 -234l-24 -136q-14 -78 -16 -91q-14 -65 -14 -105q0 -63 67 -99q41 -21 102 -21h36l-15 -79h-35q-101 0 -166 -58 q-34 -29 -46 -70q-11 -33 -39 -189l-56 -315q-26 -149 -49 -209q-45 -118 -161 -160q-77 -28 -196 -28h-50l14 83h61q137 0 193 66q37 43 61 144q9 38 20 102l60 339q27 155 43 193q45 109 168 145z" />
<glyph unicode="~" vert-adv-y="2555" d="M297 627l-83 14q75 271 265 271q87 0 151 -54q25 -21 80 -83q43 -49 69 -63q24 -13 56 -13q78 0 128 85q24 41 46 106l83 -13q-74 -272 -266 -272q-86 0 -151 54q-24 22 -79 84q-44 48 -70 62q-23 13 -55 13q-79 0 -129 -86q-22 -36 -45 -105z" />
<glyph unicode="&#xa0;" horiz-adv-x="613" vert-adv-y="2555" />
<glyph unicode="&#xa1;" horiz-adv-x="717" vert-adv-y="2555" d="M428 665l-173 -1091h-129l211 1091h91zM441 1089q43 0 74 -34q27 -29 27 -69q0 -45 -34 -75q-31 -27 -69 -27q-44 0 -75 34q-27 28 -27 69q0 45 34 76q29 26 70 26z" />
<glyph unicode="&#xa2;" vert-adv-y="2555" d="M566 153q-341 41 -341 402q0 183 70 355q97 234 301 313q73 28 164 32l35 196h111l-36 -200q147 -17 268 -105l-41 -114q-97 106 -243 127l-161 -914q168 21 298 120v-119q-158 -86 -315 -96l-59 -339h-112zM582 245l162 916q-141 -16 -233 -114q-102 -108 -145 -271 q-26 -101 -26 -200q0 -299 242 -331z" />
<glyph unicode="&#xa3;" vert-adv-y="2555" d="M37 0l18 98h196l110 624h-197l18 98h201l47 269q19 110 47 170q117 253 425 253q215 0 378 -122l-41 -117q-43 49 -96 78q-110 63 -243 63q-184 0 -281 -129q-42 -55 -64 -124q-14 -44 -32 -148l-34 -193h311l-18 -98h-311l-109 -624h694l-17 -98h-1002z" />
<glyph unicode="&#xa4;" horiz-adv-x="1229" vert-adv-y="2555" d="M186 177l-70 68l190 193q-100 132 -100 286q0 155 100 287l-190 191l70 69l187 -193q138 93 276 93q131 0 275 -93l187 193l68 -69l-188 -191q99 -134 99 -287q0 -152 -99 -286l188 -193l-68 -68l-187 193q-140 -91 -276 -91q-135 0 -275 91zM652 1086q-156 0 -253 -114 q-83 -98 -83 -248q0 -148 83 -247q97 -113 249 -113t247 113q85 99 85 248q0 150 -85 247q-96 114 -243 114z" />
<glyph unicode="&#xa5;" vert-adv-y="2555" d="M452 0l51 294h-419l18 98h419l23 131l-15 46h-396l17 98h341l-298 824h117l302 -865l605 865h127l-586 -824h338l-18 -98h-393l-30 -46l-23 -131h415l-17 -98h-415l-52 -294h-111z" />
<glyph unicode="&#xa6;" horiz-adv-x="1064" vert-adv-y="2555" d="M555 947l96 544h102l-96 -544h-102zM388 0l88 504h103l-89 -504h-102z" />
<glyph unicode="&#xa7;" vert-adv-y="2555" d="M120 -156l41 106q49 -38 93 -57q80 -33 197 -33q175 0 269 84q80 72 80 193q0 92 -67 138q-38 26 -81 39l-131 43q-135 43 -201 96q-77 61 -77 183q0 139 97 234q45 46 136 90q-80 77 -80 196q0 78 31 154q83 202 362 202q164 0 294 -80l-39 -110q-100 92 -257 92 q-131 0 -205 -67q-70 -67 -70 -178q0 -87 58 -132q35 -26 85 -45q27 -10 95 -34q174 -62 231 -112q69 -61 69 -174q0 -134 -80 -231q-45 -54 -138 -99q74 -75 74 -189q0 -139 -82 -247q-52 -67 -147 -104q-105 -40 -234 -40q-190 0 -323 82zM763 396q80 38 121 91 q51 67 51 178q0 74 -59 111q-50 32 -163 72l-174 60q-180 -84 -180 -263q0 -77 56 -115q47 -31 171 -73z" />
<glyph unicode="&#xa8;" horiz-adv-x="1064" vert-adv-y="2555" d="M510 1453q89 0 89 -92q0 -91 -91 -91q-92 0 -92 92q0 91 94 91zM853 1453q89 0 89 -92q0 -91 -91 -91q-92 0 -92 92q0 91 94 91z" />
<glyph unicode="&#xa9;" horiz-adv-x="1821" vert-adv-y="2555" d="M1176 521l36 -83q-94 -72 -218 -72q-181 0 -272 107q-82 97 -82 270q0 233 128 341q91 77 228 77q114 0 210 -55l-34 -88q-43 26 -62 34q-54 23 -118 23q-116 0 -180 -82q-66 -88 -66 -234q0 -139 57 -220q62 -88 189 -88q106 0 184 70zM961 1542q336 0 563 -225 q227 -226 227 -566q0 -338 -227 -566q-226 -226 -574 -226q-349 0 -575 226q-227 228 -227 564q0 239 118 431q109 178 301 276q169 86 394 86zM960 1465q-330 0 -536 -216q-189 -201 -189 -500q0 -295 189 -496q205 -217 526 -217t525 217q189 201 189 498q0 303 -189 498 q-210 216 -515 216z" />
<glyph unicode="&#xaa;" horiz-adv-x="799" vert-adv-y="2555" d="M681 1256l4 24q1 8 1 48q0 99 -120 99q-117 0 -231 -72l-27 68q120 81 263 81q203 0 203 -144q0 -29 -14 -104l-68 -391h-65v77q-91 -93 -231 -93q-191 0 -191 162q0 100 71 160q74 65 278 80q28 2 102 4q13 1 25 1zM667 1189q-161 -10 -234 -33q-122 -39 -122 -147 q0 -83 112 -83q85 0 152 43q59 38 68 86z" />
<glyph unicode="&#xab;" horiz-adv-x="836" vert-adv-y="2555" d="M569 645l187 -329l-48 -28l-291 360l2 12l418 360l37 -40zM234 645l187 -329l-47 -28l-292 360l2 12l419 360l36 -40z" />
<glyph unicode="&#xac;" vert-adv-y="2555" d="M167 707l18 98h911l-101 -567h-108l82 469h-802z" />
<glyph unicode="&#xad;" horiz-adv-x="739" vert-adv-y="2555" d="M94 607l17 98h579l-17 -98h-579z" />
<glyph unicode="&#xae;" horiz-adv-x="1337" vert-adv-y="2555" d="M588 746v589h186q116 0 164 -38q56 -46 56 -129q0 -131 -126 -162q19 -18 44 -65l108 -195h-94l-74 141q-47 83 -56 92q-14 12 -43 12h-78v-245h-87zM675 1057h84q148 0 148 107q0 55 -39 81q-33 22 -118 22h-75v-210zM765 1614q234 0 400 -154q175 -162 175 -420 q0 -256 -175 -419q-165 -154 -407 -154t-406 154q-175 163 -175 418q0 262 175 421q168 154 413 154zM765 1537q-223 0 -361 -139q-68 -69 -106 -169q-34 -91 -34 -189q0 -139 68 -260q68 -123 195 -185q105 -51 231 -51q218 0 355 140q67 69 105 168q34 91 34 189 q0 139 -67 261q-67 121 -196 183q-105 52 -224 52z" />
<glyph unicode="&#xaf;" horiz-adv-x="1064" vert-adv-y="2555" d="M409 1315l16 93h525l-17 -93h-524z" />
<glyph unicode="&#xb0;" horiz-adv-x="605" vert-adv-y="2555" d="M443 1532q95 0 157 -61t62 -160q0 -98 -62 -159t-160 -61t-160 61q-63 61 -63 158q0 101 63 161q63 61 163 61zM442 1451q-63 0 -100 -37t-37 -103q0 -65 37 -103q37 -36 98 -36t98 36q37 38 37 103q0 67 -37 103q-38 37 -96 37z" />
<glyph unicode="&#xb1;" vert-adv-y="2555" d="M30 0l17 94h979l-16 -94h-980zM156 713l17 94h439l78 441h101l-78 -441h439l-16 -94h-439l-77 -441h-103l78 441h-439z" />
<glyph unicode="&#xb2;" horiz-adv-x="799" vert-adv-y="2555" d="M142 801l16 87l343 310q121 108 166 171q51 70 51 133q0 55 -37 86q-46 40 -132 40q-111 0 -241 -89l-2 98q126 76 252 76q266 0 266 -199q0 -96 -65 -188q-53 -77 -187 -191l-293 -251h448l-15 -83h-570z" />
<glyph unicode="&#xb3;" horiz-adv-x="799" vert-adv-y="2555" d="M137 859l37 92q102 -78 225 -78q154 0 227 96q48 64 48 142q0 82 -60 120q-56 36 -189 36h-69l346 351h-393l14 83h581l-350 -357q106 -15 153 -51q73 -57 73 -169q0 -79 -31 -154q-44 -104 -156 -150q-79 -33 -183 -33q-159 0 -273 72z" />
<glyph unicode="&#xb4;" horiz-adv-x="1064" vert-adv-y="2555" d="M598 1233l187 254h175l-273 -254h-89z" />
<glyph unicode="&#xb5;" vert-adv-y="2555" d="M32 -426l263 1491h111l-126 -713q-16 -91 -16 -135q0 -69 36 -103q44 -42 147 -42q233 0 414 157l148 836h110l-187 -1065h-94l13 123q-180 -145 -413 -145q-138 0 -214 55l-82 -459h-110z" />
<glyph unicode="&#xb6;" horiz-adv-x="1427" vert-adv-y="2555" d="M517 -426l208 1180h-81q-101 0 -143 8q-211 40 -211 295q0 148 70 262q81 131 224 158q80 14 294 14h349l-338 -1917h-90l322 1834h-190l-324 -1834h-90z" />
<glyph unicode="&#xb7;" horiz-adv-x="613" vert-adv-y="2555" d="M330 754q43 0 74 -33q27 -29 27 -69q0 -47 -35 -77q-29 -26 -67 -26q-45 0 -76 33q-27 30 -27 70q0 45 34 76q30 26 70 26z" />
<glyph unicode="&#xb8;" horiz-adv-x="1064" vert-adv-y="2555" d="M385 0h102l-88 -104q87 -3 137 -16q92 -24 92 -94q0 -95 -80 -146q-71 -45 -190 -45q-125 0 -218 46l50 68q88 -28 170 -28q75 0 111 29q27 22 27 55q0 39 -59 51q-54 10 -175 11l-3 28z" />
<glyph unicode="&#xb9;" horiz-adv-x="799" vert-adv-y="2555" d="M441 801l142 804l-242 -76l17 94l258 85h83l-160 -907h-98z" />
<glyph unicode="&#xba;" horiz-adv-x="799" vert-adv-y="2555" d="M564 1504q115 0 179 -62q66 -64 66 -190q0 -168 -88 -285q-91 -118 -251 -118q-129 0 -190 66q-63 68 -63 184q0 172 89 286q91 119 258 119zM560 1427q-136 0 -195 -135q-42 -93 -42 -202q0 -164 148 -164q130 0 190 135q42 91 42 205q0 161 -143 161z" />
<glyph unicode="&#xbb;" horiz-adv-x="836" vert-adv-y="2555" d="M311 662l-187 330l48 28l291 -360l-2 -12l-419 -360l-36 41zM646 662l-187 330l46 28l293 -360l-2 -12l-420 -360l-35 41z" />
<glyph unicode="&#xbc;" horiz-adv-x="1851" vert-adv-y="2555" d="M444 588l143 804l-243 -75l17 93l257 84h84l-160 -906h-98zM309 0l1037 1491h109l-1037 -1491h-109zM1356 236h-452l10 60l571 605h87l-101 -582h158l-16 -83h-157l-42 -236h-99zM1372 319l73 415l-388 -415h315z" />
<glyph unicode="&#xbd;" horiz-adv-x="1851" vert-adv-y="2555" d="M385 588l142 804l-242 -75l17 93l258 84h83l-160 -906h-98zM231 0l1037 1491h109l-1037 -1491h-109zM915 0l16 87l343 310q121 109 165 171q51 72 51 133q0 55 -36 86q-46 40 -132 40q-111 0 -241 -89l-4 98q127 76 253 76q266 0 266 -199q0 -96 -64 -188 q-54 -77 -187 -191l-295 -251h450l-15 -83h-570z" />
<glyph unicode="&#xbe;" horiz-adv-x="1851" vert-adv-y="2555" d="M156 646l36 91q102 -78 226 -78q154 0 227 98q48 63 48 141q0 82 -61 120q-55 36 -188 36h-70l347 351h-393l14 83h580l-349 -358q106 -14 153 -50q73 -58 73 -169q0 -80 -31 -154q-44 -104 -156 -151q-80 -32 -184 -32q-159 0 -272 72zM404 0l1035 1491h110l-1037 -1491 h-108zM1401 236h-454l11 60l571 605h88l-103 -582h158l-14 -83h-158l-42 -236h-99zM1415 319l73 415l-388 -415h315z" />
<glyph unicode="&#xbf;" horiz-adv-x="986" vert-adv-y="2555" d="M522 667h95l-5 -35q-26 -142 -80 -209q-49 -62 -206 -206q-92 -83 -121 -119q-87 -109 -87 -237q0 -215 236 -215q120 0 244 54q63 28 162 92v-114q-216 -125 -415 -125q-185 0 -274 94q-69 74 -69 208q0 148 95 265q55 67 277 268q89 79 114 140q15 38 30 117zM610 1089 q43 0 74 -33q27 -30 27 -70q0 -46 -34 -75q-30 -27 -69 -27q-43 0 -74 34q-28 28 -28 69q0 45 35 76q29 26 69 26z" />
<glyph unicode="&#xc0;" horiz-adv-x="1387" vert-adv-y="2555" d="M1057 458h-753l-270 -458h-126l891 1491h113l371 -1491h-119zM1031 555l-190 822l-477 -822h667zM940 1634h-89l-183 256h162z" />
<glyph unicode="&#xc1;" horiz-adv-x="1387" vert-adv-y="2555" d="M1057 458h-753l-270 -458h-126l891 1491h113l371 -1491h-119zM1031 555l-190 822l-477 -822h667zM830 1634l187 256h175l-273 -256h-89z" />
<glyph unicode="&#xc2;" horiz-adv-x="1387" vert-adv-y="2555" d="M1057 458h-753l-270 -458h-126l891 1491h113l371 -1491h-119zM1031 555l-190 822l-477 -822h667zM901 1803l-243 -169h-106l268 256h176l178 -256h-92z" />
<glyph unicode="&#xc3;" horiz-adv-x="1387" vert-adv-y="2555" d="M1057 458h-753l-270 -458h-126l891 1491h113l371 -1491h-119zM1031 555l-190 822l-477 -822h667zM1160 1878h90q-84 -259 -237 -259q-57 0 -100 36q-26 21 -56 68t-42 59q-19 17 -46 17q-77 0 -133 -161h-90q83 259 241 259q59 0 97 -34q22 -20 55 -70q30 -46 45 -59 q19 -17 44 -17q77 0 132 161z" />
<glyph unicode="&#xc4;" horiz-adv-x="1387" vert-adv-y="2555" d="M1057 458h-753l-270 -458h-126l891 1491h113l371 -1491h-119zM1031 555l-190 822l-477 -822h667zM695 1855q46 0 70 -28q22 -25 22 -65q0 -94 -94 -94q-93 0 -93 95q0 92 95 92zM1092 1855q44 0 69 -28q22 -24 22 -65q0 -94 -94 -94q-93 0 -93 95q0 92 96 92z" />
<glyph unicode="&#xc5;" horiz-adv-x="1387" vert-adv-y="2555" d="M1057 458h-753l-270 -458h-126l891 1491h113l371 -1491h-119zM1031 555l-190 822l-477 -822h667zM879 1968q88 0 141 -61q44 -49 44 -130q0 -79 -42 -124q-52 -58 -146 -58t-146 58q-42 47 -42 124q0 81 43 130q54 61 148 61zM878 1897q-61 0 -90 -41q-23 -32 -23 -74 q0 -43 23 -75q30 -41 88 -41q57 0 88 41q23 30 23 75q0 44 -23 74q-31 41 -86 41z" />
<glyph unicode="&#xc6;" horiz-adv-x="1947" vert-adv-y="2555" d="M913 505h-545l-366 -505h-138l1130 1491h1000l-17 -97h-797l-97 -553h727l-18 -97h-726l-114 -646h809l-17 -98h-920zM930 603l139 791h-39l-580 -791h480z" />
<glyph unicode="&#xc7;" horiz-adv-x="1261" vert-adv-y="2555" d="M1134 225v-123q-127 -73 -251 -102q-81 -19 -216 -21l-70 -83q86 -3 136 -16q93 -24 93 -94q0 -95 -80 -146q-71 -45 -191 -45q-124 0 -217 46l50 68q87 -28 170 -28q74 0 111 29q27 22 27 55q0 39 -60 51q-54 10 -173 11l-4 28l112 131q-133 19 -221 72 q-211 129 -211 471q0 195 59 393q171 590 715 590q238 0 422 -126l-42 -117q-134 145 -375 145q-213 0 -357 -110q-164 -126 -248 -395q-58 -185 -58 -367q0 -245 113 -359q104 -106 314 -106q246 0 452 148z" />
<glyph unicode="&#xc8;" horiz-adv-x="1283" vert-adv-y="2555" d="M133 0l263 1491h933l-18 -97h-821l-98 -553h750l-18 -97h-749l-114 -646h835l-18 -98h-945zM969 1634h-89l-183 256h162z" />
<glyph unicode="&#xc9;" horiz-adv-x="1283" vert-adv-y="2555" d="M133 0l263 1491h933l-18 -97h-821l-98 -553h750l-18 -97h-749l-114 -646h835l-18 -98h-945zM809 1634l187 256h175l-273 -256h-89z" />
<glyph unicode="&#xca;" horiz-adv-x="1283" vert-adv-y="2555" d="M133 0l263 1491h933l-18 -97h-821l-98 -553h750l-18 -97h-749l-114 -646h835l-18 -98h-945zM918 1803l-243 -169h-106l268 256h176l178 -256h-92z" />
<glyph unicode="&#xcb;" horiz-adv-x="1283" vert-adv-y="2555" d="M133 0l263 1491h933l-18 -97h-821l-98 -553h750l-18 -97h-749l-114 -646h835l-18 -98h-945zM706 1855q46 0 70 -28q22 -25 22 -65q0 -94 -94 -94q-93 0 -93 95q0 92 95 92zM1103 1855q44 0 69 -28q22 -24 22 -65q0 -94 -94 -94q-93 0 -93 95q0 92 96 92z" />
<glyph unicode="&#xcc;" horiz-adv-x="563" vert-adv-y="2555" d="M133 0l263 1491h110l-263 -1491h-110zM528 1634h-89l-183 256h162z" />
<glyph unicode="&#xcd;" horiz-adv-x="563" vert-adv-y="2555" d="M133 0l263 1491h110l-263 -1491h-110zM431 1634l187 256h175l-273 -256h-89z" />
<glyph unicode="&#xce;" horiz-adv-x="563" vert-adv-y="2555" d="M133 0l263 1491h110l-263 -1491h-110zM496 1803l-243 -169h-106l268 256h176l178 -256h-92z" />
<glyph unicode="&#xcf;" horiz-adv-x="563" vert-adv-y="2555" d="M133 0l263 1491h110l-263 -1491h-110zM290 1855q46 0 70 -28q22 -25 22 -65q0 -94 -94 -94t-94 95q0 92 96 92zM686 1855q45 0 70 -28q22 -24 22 -65q0 -94 -94 -94q-93 0 -93 95q0 92 95 92z" />
<glyph unicode="&#xd0;" horiz-adv-x="1495" vert-adv-y="2555" d="M263 744h-171l17 97h172l114 650h409q333 0 478 -133t145 -422q0 -262 -118 -508q-117 -247 -332 -352q-154 -76 -406 -76h-439zM374 744l-114 -646h314q339 0 530 216q106 120 166 333q41 147 41 289q0 171 -48 266q-48 94 -161 144q-105 48 -349 48h-264l-98 -553h503 l-16 -97h-504z" />
<glyph unicode="&#xd1;" horiz-adv-x="1565" vert-adv-y="2555" d="M133 0l263 1491h104l671 -1293l228 1293h109l-263 -1491h-98l-674 1312l-232 -1312h-108zM1267 1878h90q-84 -259 -237 -259q-57 0 -100 36q-26 21 -56 68t-42 59q-19 17 -46 17q-77 0 -133 -161h-90q83 259 241 259q59 0 97 -34q22 -20 55 -70q30 -46 45 -59 q19 -17 44 -17q77 0 132 161z" />
<glyph unicode="&#xd2;" horiz-adv-x="1580" vert-adv-y="2555" d="M943 1512q182 0 320 -76q251 -137 251 -506q0 -179 -55 -360q-93 -303 -297 -458q-176 -133 -438 -133q-273 0 -416 130q-86 78 -127 205q-39 119 -39 249q0 176 57 357q91 302 297 455q182 137 447 137zM934 1414q-223 0 -385 -126q-165 -130 -240 -401 q-51 -183 -51 -356q0 -152 62 -264q107 -190 411 -190q368 0 543 332q60 114 97 289q28 137 28 259q0 135 -52 241q-57 117 -185 171q-106 45 -228 45zM1074 1634h-89l-183 256h162z" />
<glyph unicode="&#xd3;" horiz-adv-x="1580" vert-adv-y="2555" d="M943 1512q182 0 320 -76q251 -137 251 -506q0 -179 -55 -360q-93 -303 -297 -458q-176 -133 -438 -133q-273 0 -416 130q-86 78 -127 205q-39 119 -39 249q0 176 57 357q91 302 297 455q182 137 447 137zM934 1414q-223 0 -385 -126q-165 -130 -240 -401 q-51 -183 -51 -356q0 -152 62 -264q107 -190 411 -190q368 0 543 332q60 114 97 289q28 137 28 259q0 135 -52 241q-57 117 -185 171q-106 45 -228 45zM927 1634l187 256h175l-273 -256h-89z" />
<glyph unicode="&#xd4;" horiz-adv-x="1580" vert-adv-y="2555" d="M943 1512q182 0 320 -76q251 -137 251 -506q0 -179 -55 -360q-93 -303 -297 -458q-176 -133 -438 -133q-273 0 -416 130q-86 78 -127 205q-39 119 -39 249q0 176 57 357q91 302 297 455q182 137 447 137zM934 1414q-223 0 -385 -126q-165 -130 -240 -401 q-51 -183 -51 -356q0 -152 62 -264q107 -190 411 -190q368 0 543 332q60 114 97 289q28 137 28 259q0 135 -52 241q-57 117 -185 171q-106 45 -228 45zM1017 1803l-243 -169h-106l268 256h176l178 -256h-92z" />
<glyph unicode="&#xd5;" horiz-adv-x="1580" vert-adv-y="2555" d="M943 1512q182 0 320 -76q251 -137 251 -506q0 -179 -55 -360q-93 -303 -297 -458q-176 -133 -438 -133q-273 0 -416 130q-86 78 -127 205q-39 119 -39 249q0 176 57 357q91 302 297 455q182 137 447 137zM934 1414q-223 0 -385 -126q-165 -130 -240 -401 q-51 -183 -51 -356q0 -152 62 -264q107 -190 411 -190q368 0 543 332q60 114 97 289q28 137 28 259q0 135 -52 241q-57 117 -185 171q-106 45 -228 45zM1269 1878h90q-84 -259 -237 -259q-57 0 -100 36q-26 21 -56 68t-42 59q-19 17 -46 17q-77 0 -133 -161h-90 q83 259 241 259q59 0 97 -34q22 -20 55 -70q30 -46 45 -59q19 -17 44 -17q77 0 132 161z" />
<glyph unicode="&#xd6;" horiz-adv-x="1580" vert-adv-y="2555" d="M943 1512q182 0 320 -76q251 -137 251 -506q0 -179 -55 -360q-93 -303 -297 -458q-176 -133 -438 -133q-273 0 -416 130q-86 78 -127 205q-39 119 -39 249q0 176 57 357q91 302 297 455q182 137 447 137zM934 1414q-223 0 -385 -126q-165 -130 -240 -401 q-51 -183 -51 -356q0 -152 62 -264q107 -190 411 -190q368 0 543 332q60 114 97 289q28 137 28 259q0 135 -52 241q-57 117 -185 171q-106 45 -228 45zM781 1855q46 0 70 -28q22 -25 22 -65q0 -94 -94 -94q-93 0 -93 95q0 92 95 92zM1178 1855q44 0 69 -28q22 -24 22 -65 q0 -94 -94 -94q-93 0 -93 95q0 92 96 92z" />
<glyph unicode="&#xd7;" vert-adv-y="2555" d="M581 761l-304 301l73 70l305 -302l305 302l72 -68l-305 -301l305 -299l-74 -70l-305 301l-305 -302l-71 68z" />
<glyph unicode="&#xd8;" horiz-adv-x="1580" vert-adv-y="2555" d="M234 198q-92 152 -92 369q0 172 57 353q92 304 296 455q185 137 438 137q274 0 433 -152l153 159l64 -63l-161 -166q92 -147 92 -366q0 -173 -56 -354q-92 -303 -296 -458q-176 -133 -439 -133q-282 0 -432 145l-151 -155l-67 63zM313 279l977 1003q-135 132 -363 132 q-218 0 -378 -126q-166 -132 -240 -401q-51 -184 -51 -351q0 -143 55 -257zM1342 1207l-975 -1005q122 -125 363 -125q369 0 544 332q60 114 97 289q28 137 28 259q0 136 -57 250z" />
<glyph unicode="&#xd9;" horiz-adv-x="1499" vert-adv-y="2555" d="M383 1491h110l-148 -836q-32 -186 -32 -298q0 -142 82 -208q90 -72 275 -72q296 0 411 183q66 106 117 395l147 836h111l-164 -933q-25 -142 -47 -206q-68 -204 -214 -291q-140 -82 -359 -82q-474 0 -474 376q0 88 26 238zM1052 1634h-89l-183 256h162z" />
<glyph unicode="&#xda;" horiz-adv-x="1499" vert-adv-y="2555" d="M383 1491h110l-148 -836q-32 -186 -32 -298q0 -142 82 -208q90 -72 275 -72q296 0 411 183q66 106 117 395l147 836h111l-164 -933q-25 -142 -47 -206q-68 -204 -214 -291q-140 -82 -359 -82q-474 0 -474 376q0 88 26 238zM855 1634l187 256h175l-273 -256h-89z" />
<glyph unicode="&#xdb;" horiz-adv-x="1499" vert-adv-y="2555" d="M383 1491h110l-148 -836q-32 -186 -32 -298q0 -142 82 -208q90 -72 275 -72q296 0 411 183q66 106 117 395l147 836h111l-164 -933q-25 -142 -47 -206q-68 -204 -214 -291q-140 -82 -359 -82q-474 0 -474 376q0 88 26 238zM976 1803l-243 -169h-106l268 256h176l178 -256 h-92z" />
<glyph unicode="&#xdc;" horiz-adv-x="1499" vert-adv-y="2555" d="M383 1491h110l-148 -836q-32 -186 -32 -298q0 -142 82 -208q90 -72 275 -72q296 0 411 183q66 106 117 395l147 836h111l-164 -933q-25 -142 -47 -206q-68 -204 -214 -291q-140 -82 -359 -82q-474 0 -474 376q0 88 26 238zM781 1855q46 0 70 -28q22 -25 22 -65 q0 -94 -94 -94q-93 0 -93 95q0 92 95 92zM1178 1855q44 0 69 -28q22 -24 22 -65q0 -94 -94 -94q-93 0 -93 95q0 92 96 92z" />
<glyph unicode="&#xdd;" horiz-adv-x="1161" vert-adv-y="2555" d="M433 0l92 520l-350 971h119l300 -867l606 867h125l-690 -971l-91 -520h-111zM679 1634l187 256h175l-273 -256h-89z" />
<glyph unicode="&#xde;" horiz-adv-x="1312" vert-adv-y="2555" d="M301 323l-58 -323h-110l263 1491h110l-42 -245h299q280 0 399 -87q117 -87 117 -289q0 -162 -76 -301q-84 -155 -263 -205q-143 -41 -339 -41h-300zM318 421h282q215 0 327 43q116 44 179 162q58 110 58 240q0 162 -108 227q-90 55 -328 55h-282z" />
<glyph unicode="&#xdf;" horiz-adv-x="1271" vert-adv-y="2555" d="M-199 -426l17 94q74 11 107 24q112 47 170 238q29 95 52 228l144 816q23 132 35 179t34 92q128 267 451 267q163 0 259 -70q93 -66 93 -200q0 -108 -56 -175q-44 -53 -194 -130q-87 -46 -116 -77q-39 -42 -39 -92q0 -49 38 -88q34 -35 144 -94q127 -69 175 -133 q50 -64 50 -148q0 -149 -90 -233q-97 -93 -314 -93q-163 0 -284 53l41 114q105 -73 280 -73q143 0 206 82q45 61 45 152q0 59 -35 99q-24 28 -110 73q-135 73 -190 127q-54 54 -54 142q0 76 40 132q42 59 178 133q112 61 145 108q34 49 34 123q0 175 -249 175 q-208 0 -310 -149q-41 -63 -65 -159q-5 -14 -23 -112l-23 -110l-128 -724q-33 -188 -66 -283q-63 -185 -195 -258q-73 -41 -197 -50z" />
<glyph unicode="&#xe0;" horiz-adv-x="1166" vert-adv-y="2555" d="M781 119q-49 -47 -82 -68q-112 -72 -274 -72q-357 0 -357 396q0 154 48 300q70 207 220 315q133 96 300 96q127 0 216 -38q25 -10 87 -46l18 63h90l-188 -1065h-86zM907 899q-101 93 -257 93q-250 0 -378 -241q-89 -169 -89 -373q0 -158 59 -230q61 -75 188 -75 q169 0 283 103q79 70 104 216zM796 1233h-90l-183 254h162z" />
<glyph unicode="&#xe1;" horiz-adv-x="1166" vert-adv-y="2555" d="M781 119q-49 -47 -82 -68q-112 -72 -274 -72q-357 0 -357 396q0 154 48 300q70 207 220 315q133 96 300 96q127 0 216 -38q25 -10 87 -46l18 63h90l-188 -1065h-86zM907 899q-101 93 -257 93q-250 0 -378 -241q-89 -169 -89 -373q0 -158 59 -230q61 -75 188 -75 q169 0 283 103q79 70 104 216zM610 1233l187 254h175l-273 -254h-89z" />
<glyph unicode="&#xe2;" horiz-adv-x="1166" vert-adv-y="2555" d="M781 119q-49 -47 -82 -68q-112 -72 -274 -72q-357 0 -357 396q0 154 48 300q70 207 220 315q133 96 300 96q127 0 216 -38q25 -10 87 -46l18 63h90l-188 -1065h-86zM907 899q-101 93 -257 93q-250 0 -378 -241q-89 -169 -89 -373q0 -158 59 -230q61 -75 188 -75 q169 0 283 103q79 70 104 216zM737 1401l-242 -170h-106l268 256h175l179 -256h-92z" />
<glyph unicode="&#xe3;" horiz-adv-x="1166" vert-adv-y="2555" d="M781 119q-49 -47 -82 -68q-112 -72 -274 -72q-357 0 -357 396q0 154 48 300q70 207 220 315q133 96 300 96q127 0 216 -38q25 -10 87 -46l18 63h90l-188 -1065h-86zM907 899q-101 93 -257 93q-250 0 -378 -241q-89 -169 -89 -373q0 -158 59 -230q61 -75 188 -75 q169 0 283 103q79 70 104 216zM990 1478h91q-84 -261 -237 -261q-58 0 -101 36q-25 21 -55 69q-31 47 -43 59q-19 18 -46 18q-77 0 -133 -163h-89q83 262 237 262q62 0 101 -36q22 -20 55 -70q30 -47 44 -61q19 -16 44 -16q76 0 132 163z" />
<glyph unicode="&#xe4;" horiz-adv-x="1166" vert-adv-y="2555" d="M781 119q-49 -47 -82 -68q-112 -72 -274 -72q-357 0 -357 396q0 154 48 300q70 207 220 315q133 96 300 96q127 0 216 -38q25 -10 87 -46l18 63h90l-188 -1065h-86zM907 899q-101 93 -257 93q-250 0 -378 -241q-89 -169 -89 -373q0 -158 59 -230q61 -75 188 -75 q169 0 283 103q79 70 104 216zM560 1453q89 0 89 -92q0 -91 -91 -91q-92 0 -92 92q0 91 94 91zM903 1453q89 0 89 -92q0 -91 -91 -91q-92 0 -92 92q0 91 94 91z" />
<glyph unicode="&#xe5;" horiz-adv-x="1166" vert-adv-y="2555" d="M781 119q-49 -47 -82 -68q-112 -72 -274 -72q-357 0 -357 396q0 154 48 300q70 207 220 315q133 96 300 96q127 0 216 -38q25 -10 87 -46l18 63h90l-188 -1065h-86zM907 899q-101 93 -257 93q-250 0 -378 -241q-89 -169 -89 -373q0 -158 59 -230q61 -75 188 -75 q169 0 283 103q79 70 104 216zM735 1568q89 0 142 -60q43 -49 43 -132q0 -79 -42 -126q-52 -57 -146 -57q-93 0 -145 57q-43 48 -43 126q0 83 44 132q54 60 147 60zM734 1498q-60 0 -90 -42q-23 -31 -23 -75t23 -76q29 -41 88 -41q57 0 89 41q22 30 22 76t-22 75 q-32 42 -87 42z" />
<glyph unicode="&#xe6;" horiz-adv-x="1821" vert-adv-y="2555" d="M752 0l8 119q-49 -46 -82 -68q-112 -72 -272 -72q-338 0 -338 396q0 155 47 300q68 207 217 315q130 96 293 96q124 0 209 -38q25 -10 84 -46l18 63h90l-26 -148q148 170 396 170q155 0 253 -63q103 -64 103 -203q0 -111 -57 -182q-54 -68 -210 -100q-128 -26 -508 -43 l-51 -3q-9 -58 -9 -107q0 -160 86 -236q85 -77 240 -77q111 0 229 52q66 29 118 72v-120q-169 -98 -356 -98q-269 0 -368 181l-28 -160h-86zM886 899q-97 93 -246 93q-245 0 -370 -241q-87 -168 -87 -375q0 -153 54 -228t172 -75q108 0 204 49q89 44 133 117q34 54 51 153z M943 588q54 0 222 11q320 23 402 75q70 44 70 147q0 172 -249 172q-247 0 -366 -203q-50 -86 -79 -202z" />
<glyph unicode="&#xe7;" horiz-adv-x="1045" vert-adv-y="2555" d="M866 194v-117q-91 -50 -166 -72q-83 -24 -204 -26l-70 -83q88 -3 138 -16q92 -24 92 -94q0 -95 -80 -146q-71 -45 -190 -45q-125 0 -218 46l49 68q88 -28 171 -28q74 0 111 29q27 22 27 55q0 39 -59 51q-54 10 -175 11l-4 28l114 134q-302 61 -302 396q0 135 42 275 q70 231 236 344q121 82 284 82q199 0 351 -109l-41 -115q-119 130 -308 130q-227 0 -353 -215q-96 -163 -96 -370q0 -334 294 -334q116 0 239 53q65 29 118 68z" />
<glyph unicode="&#xe8;" horiz-adv-x="1135" vert-adv-y="2555" d="M224 493q-9 -58 -9 -107q0 -160 86 -236q85 -77 240 -77q111 0 229 52q66 29 118 72v-120q-169 -98 -357 -98t-300 88q-131 101 -131 322q0 138 44 273q65 207 208 318q139 107 340 107q158 0 255 -63q103 -65 103 -202q0 -112 -57 -183q-54 -68 -210 -100 q-128 -26 -508 -43zM241 588q54 0 222 11q320 23 402 75q70 44 70 147q0 172 -249 172q-246 0 -366 -203q-50 -86 -79 -202zM793 1233h-90l-183 254h162z" />
<glyph unicode="&#xe9;" horiz-adv-x="1135" vert-adv-y="2555" d="M224 493q-9 -58 -9 -107q0 -160 86 -236q85 -77 240 -77q111 0 229 52q66 29 118 72v-120q-169 -98 -357 -98t-300 88q-131 101 -131 322q0 138 44 273q65 207 208 318q139 107 340 107q158 0 255 -63q103 -65 103 -202q0 -112 -57 -183q-54 -68 -210 -100 q-128 -26 -508 -43zM241 588q54 0 222 11q320 23 402 75q70 44 70 147q0 172 -249 172q-246 0 -366 -203q-50 -86 -79 -202zM633 1233l187 254h175l-273 -254h-89z" />
<glyph unicode="&#xea;" horiz-adv-x="1135" vert-adv-y="2555" d="M224 493q-9 -58 -9 -107q0 -160 86 -236q85 -77 240 -77q111 0 229 52q66 29 118 72v-120q-169 -98 -357 -98t-300 88q-131 101 -131 322q0 138 44 273q65 207 208 318q139 107 340 107q158 0 255 -63q103 -65 103 -202q0 -112 -57 -183q-54 -68 -210 -100 q-128 -26 -508 -43zM241 588q54 0 222 11q320 23 402 75q70 44 70 147q0 172 -249 172q-246 0 -366 -203q-50 -86 -79 -202zM735 1401l-242 -170h-106l268 256h175l179 -256h-92z" />
<glyph unicode="&#xeb;" horiz-adv-x="1118" vert-adv-y="2555" d="M224 493q-9 -58 -9 -107q0 -160 86 -236q85 -77 240 -77q111 0 229 52q66 29 118 72v-120q-169 -98 -357 -98t-300 88q-131 101 -131 322q0 138 44 273q65 207 208 318q139 107 340 107q158 0 255 -63q103 -65 103 -202q0 -112 -57 -183q-54 -68 -210 -100 q-128 -26 -508 -43zM241 588q54 0 222 11q320 23 402 75q70 44 70 147q0 172 -249 172q-246 0 -366 -203q-50 -86 -79 -202zM558 1453q89 0 89 -92q0 -91 -91 -91q-92 0 -92 92q0 91 94 91zM901 1453q89 0 89 -92q0 -91 -91 -91q-92 0 -92 92q0 91 94 91z" />
<glyph unicode="&#xec;" horiz-adv-x="536" vert-adv-y="2555" d="M120 0l187 1065h111l-188 -1065h-110zM457 1233h-90l-183 254h162z" />
<glyph unicode="&#xed;" horiz-adv-x="536" vert-adv-y="2555" d="M120 0l187 1065h111l-188 -1065h-110zM354 1233l187 254h175l-273 -254h-89z" />
<glyph unicode="&#xee;" horiz-adv-x="536" vert-adv-y="2555" d="M120 0l187 1065h111l-188 -1065h-110zM410 1401l-242 -170h-106l268 256h175l179 -256h-92z" />
<glyph unicode="&#xef;" horiz-adv-x="536" vert-adv-y="2555" d="M120 0l187 1065h111l-188 -1065h-110zM569 1453q89 0 89 -92q0 -91 -91 -91q-92 0 -92 92q0 91 94 91zM912 1453q89 0 89 -92q0 -91 -91 -91q-92 0 -92 92q0 91 94 91z" />
<glyph unicode="&#xf0;" horiz-adv-x="1223" vert-adv-y="2555" d="M958 1013q-36 106 -77 169q-56 85 -133 132l-276 -132l-41 78l212 99q-122 40 -231 46l16 81q203 -19 330 -72l212 99l41 -78l-158 -73q95 -68 160 -188q46 -85 75 -197q36 -144 36 -283q0 -166 -48 -310q-67 -203 -225 -312q-132 -93 -321 -93q-202 0 -315 113 q-113 112 -113 305q0 146 46 286q67 210 225 320q127 88 301 88q166 0 284 -78zM699 997q-182 0 -294 -97q-98 -86 -154 -272q-34 -113 -34 -229q0 -167 70 -242q80 -84 247 -84q275 0 394 247q81 170 81 354q0 160 -67 235q-78 88 -243 88z" />
<glyph unicode="&#xf1;" horiz-adv-x="1296" vert-adv-y="2555" d="M120 0l187 1065h90l-12 -145q65 48 166 93q167 73 308 73q146 0 221 -68q60 -55 60 -152q0 -69 -22 -192l-119 -674h-111l125 705q11 66 11 132q0 155 -181 155q-210 0 -469 -174l-144 -818h-110zM1037 1478h91q-84 -261 -237 -261q-58 0 -101 36q-25 21 -55 69 q-31 47 -43 59q-19 18 -46 18q-77 0 -133 -163h-89q83 262 237 262q62 0 101 -36q22 -20 55 -70q30 -47 44 -61q19 -16 44 -16q76 0 132 163z" />
<glyph unicode="&#xf2;" horiz-adv-x="1223" vert-adv-y="2555" d="M679 1087q211 0 330 -111q113 -108 113 -310q0 -166 -58 -325q-132 -362 -514 -362q-201 0 -314 92q-136 110 -136 330q0 166 58 324q132 362 521 362zM675 993q-248 0 -356 -186q-104 -180 -104 -405q0 -166 79 -244q87 -85 259 -85q242 0 350 186q104 180 104 405 q0 329 -332 329zM824 1233h-90l-183 254h162z" />
<glyph unicode="&#xf3;" horiz-adv-x="1223" vert-adv-y="2555" d="M679 1087q211 0 330 -111q113 -108 113 -310q0 -166 -58 -325q-132 -362 -514 -362q-201 0 -314 92q-136 110 -136 330q0 166 58 324q132 362 521 362zM675 993q-248 0 -356 -186q-104 -180 -104 -405q0 -166 79 -244q87 -85 259 -85q242 0 350 186q104 180 104 405 q0 329 -332 329zM677 1233l187 254h175l-273 -254h-89z" />
<glyph unicode="&#xf4;" horiz-adv-x="1223" vert-adv-y="2555" d="M679 1087q211 0 330 -111q113 -108 113 -310q0 -166 -58 -325q-132 -362 -514 -362q-201 0 -314 92q-136 110 -136 330q0 166 58 324q132 362 521 362zM675 993q-248 0 -356 -186q-104 -180 -104 -405q0 -166 79 -244q87 -85 259 -85q242 0 350 186q104 180 104 405 q0 329 -332 329zM746 1401l-242 -170h-106l268 256h175l179 -256h-92z" />
<glyph unicode="&#xf5;" horiz-adv-x="1223" vert-adv-y="2555" d="M679 1087q211 0 330 -111q113 -108 113 -310q0 -166 -58 -325q-132 -362 -514 -362q-201 0 -314 92q-136 110 -136 330q0 166 58 324q132 362 521 362zM675 993q-248 0 -356 -186q-104 -180 -104 -405q0 -166 79 -244q87 -85 259 -85q242 0 350 186q104 180 104 405 q0 329 -332 329zM999 1478h91q-84 -261 -237 -261q-58 0 -101 36q-25 21 -55 69q-31 47 -43 59q-19 18 -46 18q-77 0 -133 -163h-89q83 262 237 262q62 0 101 -36q22 -20 55 -70q30 -47 44 -61q19 -16 44 -16q76 0 132 163z" />
<glyph unicode="&#xf6;" horiz-adv-x="1223" vert-adv-y="2555" d="M679 1087q211 0 330 -111q113 -108 113 -310q0 -166 -58 -325q-132 -362 -514 -362q-201 0 -314 92q-136 110 -136 330q0 166 58 324q132 362 521 362zM675 993q-248 0 -356 -186q-104 -180 -104 -405q0 -166 79 -244q87 -85 259 -85q242 0 350 186q104 180 104 405 q0 329 -332 329zM569 1453q89 0 89 -92q0 -91 -91 -91q-92 0 -92 92q0 91 94 91zM912 1453q89 0 89 -92q0 -91 -91 -91q-92 0 -92 92q0 91 94 91z" />
<glyph unicode="&#xf7;" vert-adv-y="2555" d="M706 1144q38 0 67 -31q24 -26 24 -62q0 -40 -32 -68q-26 -24 -61 -24q-40 0 -69 30q-23 26 -23 63q0 41 31 68q27 24 63 24zM604 567q39 0 67 -30q24 -27 24 -63q0 -40 -31 -68q-26 -24 -62 -24q-41 0 -68 30q-24 26 -24 63q0 41 31 68q26 24 63 24zM156 713l17 94h979 l-16 -94h-980z" />
<glyph unicode="&#xf8;" horiz-adv-x="1223" vert-adv-y="2555" d="M152 172q-52 97 -52 236q0 154 58 317q67 185 210 279q125 82 305 82q228 0 347 -122l162 148l64 -61l-175 -159q51 -98 51 -234q0 -158 -58 -317q-131 -362 -514 -362q-227 0 -346 122l-162 -148l-65 58zM237 249l705 643q-90 100 -273 100q-241 0 -349 -186 q-52 -88 -82 -209q-23 -96 -23 -185q0 -96 22 -163zM986 814l-704 -642q89 -99 271 -99q242 0 350 186q52 88 81 209q24 96 24 186q0 94 -22 160z" />
<glyph unicode="&#xf9;" horiz-adv-x="1241" vert-adv-y="2555" d="M854 123q-166 -144 -393 -144q-301 0 -301 229q0 74 29 239l109 618h111l-122 -692q-17 -94 -17 -149q0 -151 194 -151q226 0 400 156l148 836h110l-187 -1065h-94zM833 1233h-90l-183 254h162z" />
<glyph unicode="&#xfa;" horiz-adv-x="1241" vert-adv-y="2555" d="M854 123q-166 -144 -393 -144q-301 0 -301 229q0 74 29 239l109 618h111l-122 -692q-17 -94 -17 -149q0 -151 194 -151q226 0 400 156l148 836h110l-187 -1065h-94zM686 1233l187 254h175l-273 -254h-89z" />
<glyph unicode="&#xfb;" horiz-adv-x="1241" vert-adv-y="2555" d="M854 123q-166 -144 -393 -144q-301 0 -301 229q0 74 29 239l109 618h111l-122 -692q-17 -94 -17 -149q0 -151 194 -151q226 0 400 156l148 836h110l-187 -1065h-94zM768 1401l-242 -170h-106l268 256h175l179 -256h-92z" />
<glyph unicode="&#xfc;" horiz-adv-x="1241" vert-adv-y="2555" d="M854 123q-166 -144 -393 -144q-301 0 -301 229q0 74 29 239l109 618h111l-122 -692q-17 -94 -17 -149q0 -151 194 -151q226 0 400 156l148 836h110l-187 -1065h-94zM569 1453q89 0 89 -92q0 -91 -91 -91q-92 0 -92 92q0 91 94 91zM912 1453q89 0 89 -92q0 -91 -91 -91 q-92 0 -92 92q0 91 94 91z" />
<glyph unicode="&#xfd;" horiz-adv-x="1061" vert-adv-y="2555" d="M392 -5l-264 1070h113l223 -944l541 944h116l-867 -1491h-123zM596 1233l187 254h175l-273 -254h-89z" />
<glyph unicode="&#xfe;" horiz-adv-x="1239" vert-adv-y="2555" d="M269 151l-102 -577h-110l338 1917h110l-94 -539q198 135 381 135q194 0 278 -107q73 -93 73 -279q0 -133 -42 -281q-61 -214 -172 -322q-123 -120 -328 -120q-163 0 -255 74q-38 31 -77 99zM389 829l-68 -387q-12 -69 -12 -114q0 -69 26 -113q85 -143 269 -143 q144 0 236 87q92 86 148 284q40 141 40 271q0 139 -50 202q-62 77 -194 77q-128 0 -256 -73q-57 -33 -139 -91z" />
<glyph unicode="&#xff;" horiz-adv-x="1061" vert-adv-y="2555" d="M392 -5l-264 1070h113l223 -944l541 944h116l-867 -1491h-123zM477 1453q89 0 89 -92q0 -91 -91 -91q-92 0 -92 92q0 91 94 91zM820 1453q89 0 89 -92q0 -91 -91 -91q-92 0 -92 92q0 91 94 91z" />
<glyph unicode="&#x131;" horiz-adv-x="536" vert-adv-y="2555" d="M120 0l187 1065h111l-188 -1065h-110z" />
<glyph unicode="&#x152;" horiz-adv-x="2033" vert-adv-y="2555" d="M1828 0h-950q-264 0 -354 12q-163 22 -247 101q-137 129 -137 404q0 332 141 599q153 291 414 350q106 25 428 25h956l-18 -97h-798l-97 -553h726l-18 -97h-726l-113 -646h811zM1151 1386h-115q-202 0 -264 -8q-176 -24 -290 -155q-122 -140 -175 -342q-51 -195 -51 -368 q0 -163 70 -272q49 -78 132 -108q80 -29 209 -29h143h115z" />
<glyph unicode="&#x153;" horiz-adv-x="1957" vert-adv-y="2555" d="M971 252q-141 -273 -443 -273q-190 0 -298 92q-130 110 -130 329q0 165 56 325q66 186 202 279q120 82 292 82q333 0 399 -296q156 297 483 297q155 0 254 -63q103 -65 103 -203q0 -111 -57 -182q-55 -68 -211 -100q-128 -26 -508 -43l-51 -3q-8 -61 -8 -107 q0 -160 85 -236q84 -77 240 -77q111 0 229 52q66 29 118 72v-120q-169 -98 -354 -98q-332 0 -401 273zM652 992q-235 0 -337 -186q-100 -180 -100 -405q0 -164 75 -243q79 -85 242 -85q230 0 332 185q100 181 100 404q0 330 -312 330zM1080 588q54 0 221 11q320 23 403 75 q69 44 69 147q0 172 -248 172q-247 0 -366 -203q-50 -86 -79 -202z" />
<glyph unicode="&#x178;" horiz-adv-x="1161" vert-adv-y="2555" d="M433 0l92 520l-350 971h119l300 -867l606 867h125l-690 -971l-91 -520h-111zM582 1855q46 0 70 -28q22 -25 22 -65q0 -94 -94 -94q-93 0 -93 95q0 92 95 92zM979 1855q44 0 69 -28q22 -24 22 -65q0 -94 -94 -94q-93 0 -93 95q0 92 96 92z" />
<glyph unicode="&#x2c6;" horiz-adv-x="1064" vert-adv-y="2555" d="M687 1401l-242 -170h-106l268 256h175l179 -256h-92z" />
<glyph unicode="&#x2da;" horiz-adv-x="1064" vert-adv-y="2555" d="M684 1568q89 0 142 -60q43 -49 43 -132q0 -79 -42 -126q-52 -57 -146 -57q-93 0 -145 57q-43 48 -43 126q0 83 44 132q54 60 147 60zM683 1498q-60 0 -90 -42q-23 -31 -23 -75t23 -76q29 -41 88 -41q57 0 89 41q22 30 22 76t-22 75q-32 42 -87 42z" />
<glyph unicode="&#x2dc;" horiz-adv-x="1064" vert-adv-y="2555" d="M940 1478h91q-84 -261 -237 -261q-58 0 -101 36q-25 21 -55 69q-31 47 -43 59q-19 18 -46 18q-77 0 -133 -163h-89q83 262 237 262q62 0 101 -36q22 -20 55 -70q30 -47 44 -61q19 -16 44 -16q76 0 132 163z" />
<glyph unicode="&#x2000;" horiz-adv-x="984" vert-adv-y="0" />
<glyph unicode="&#x2001;" horiz-adv-x="1968" vert-adv-y="0" />
<glyph unicode="&#x2002;" horiz-adv-x="984" vert-adv-y="0" />
<glyph unicode="&#x2003;" horiz-adv-x="1968" vert-adv-y="0" />
<glyph unicode="&#x2004;" horiz-adv-x="656" vert-adv-y="0" />
<glyph unicode="&#x2005;" horiz-adv-x="492" vert-adv-y="0" />
<glyph unicode="&#x2006;" horiz-adv-x="328" vert-adv-y="0" />
<glyph unicode="&#x2007;" horiz-adv-x="328" vert-adv-y="0" />
<glyph unicode="&#x2008;" horiz-adv-x="246" vert-adv-y="0" />
<glyph unicode="&#x2009;" horiz-adv-x="393" vert-adv-y="0" />
<glyph unicode="&#x200a;" horiz-adv-x="109" vert-adv-y="0" />
<glyph unicode="&#x2010;" horiz-adv-x="739" vert-adv-y="2555" d="M94 607l17 98h579l-17 -98h-579z" />
<glyph unicode="&#x2011;" horiz-adv-x="739" vert-adv-y="2555" d="M94 607l17 98h579l-17 -98h-579z" />
<glyph unicode="&#x2012;" horiz-adv-x="739" vert-adv-y="2555" d="M94 607l17 98h579l-17 -98h-579z" />
<glyph unicode="&#x2013;" vert-adv-y="2555" d="M145 607l17 98h964l-16 -98h-965z" />
<glyph unicode="&#x2014;" horiz-adv-x="1064" vert-adv-y="2555" d="M-80 607l18 98h1252l-18 -98h-1252z" />
<glyph unicode="&#x2018;" horiz-adv-x="360" vert-adv-y="2555" d="M433 1491l-133 -465h-130l173 465h90z" />
<glyph unicode="&#x2019;" horiz-adv-x="360" vert-adv-y="2555" d="M184 1026l133 465h130l-175 -465h-88z" />
<glyph unicode="&#x201a;" horiz-adv-x="360" vert-adv-y="2555" d="M-49 -298l133 466h130l-174 -466h-89z" />
<glyph unicode="&#x201c;" horiz-adv-x="578" vert-adv-y="2555" d="M651 1491l-133 -465h-129l174 465h88zM433 1491l-133 -465h-130l173 465h90z" />
<glyph unicode="&#x201d;" horiz-adv-x="578" vert-adv-y="2555" d="M184 1026l133 465h130l-175 -465h-88zM404 1026l132 465h130l-175 -465h-87z" />
<glyph unicode="&#x201e;" horiz-adv-x="578" vert-adv-y="2555" d="M-49 -298l133 466h130l-174 -466h-89zM171 -298l133 466h129l-175 -466h-87z" />
<glyph unicode="&#x2022;" vert-adv-y="2555" d="M659 1030q113 0 188 -84q65 -71 65 -173q0 -119 -84 -195q-72 -64 -174 -64q-116 0 -192 83q-66 73 -66 178q0 114 84 190q73 65 179 65z" />
<glyph unicode="&#x2026;" horiz-adv-x="1839" vert-adv-y="2555" d="M229 184q42 0 74 -34q27 -28 27 -68q0 -47 -35 -77q-29 -26 -67 -26q-45 0 -76 33q-27 30 -27 70q0 45 34 75q30 27 70 27zM843 184q42 0 73 -34q27 -28 27 -68q0 -47 -34 -77q-29 -26 -68 -26q-44 0 -76 33q-27 30 -27 70q0 45 35 75q30 27 70 27zM1457 184q42 0 73 -34 q27 -28 27 -68q0 -47 -34 -77q-30 -26 -68 -26q-45 0 -76 33q-27 30 -27 70q0 45 34 75q30 27 71 27z" />
<glyph unicode="&#x202f;" horiz-adv-x="393" vert-adv-y="0" />
<glyph unicode="&#x2039;" horiz-adv-x="502" vert-adv-y="2555" d="M234 645l187 -329l-47 -28l-292 360l2 12l419 360l36 -40z" />
<glyph unicode="&#x203a;" horiz-adv-x="502" vert-adv-y="2555" d="M311 662l-187 330l48 28l291 -360l-2 -12l-419 -360l-36 41z" />
<glyph unicode="&#x205f;" horiz-adv-x="492" vert-adv-y="0" />
<glyph unicode="&#x20ac;" vert-adv-y="2555" d="M4 535l55 97h154q5 72 23 167h-186l55 97h153q163 616 679 616q179 0 312 -72q36 -19 87 -57l-57 -100q-127 131 -342 131q-302 0 -458 -272q-59 -103 -99 -246h686l-56 -97h-655q-19 -87 -25 -167h589l-56 -97h-537q1 -143 37 -242q80 -216 357 -216q225 0 413 150v-124 q-200 -124 -416 -124q-323 0 -439 220q-69 128 -70 336h-204z" />
<glyph unicode="&#x2122;" horiz-adv-x="1782" vert-adv-y="2555" d="M806 590l158 901h107l231 -600l441 600h115l-159 -901h-97l131 741l-427 -573h-48l-223 573l-131 -741h-98zM296 590l143 808h-287l15 93h673l-16 -93h-286l-144 -808h-98z" />
<glyph unicode="&#x25fc;" horiz-adv-x="1066" vert-adv-y="2132" d="M0 1066h1066v-1066h-1066v1066z" />
<glyph horiz-adv-x="1064" vert-adv-y="2555" d="M1011 1878h90q-84 -259 -237 -259q-57 0 -100 36q-26 21 -56 68t-42 59q-19 17 -46 17q-77 0 -133 -161h-90q83 259 241 259q59 0 97 -34q22 -20 55 -70q30 -46 45 -59q19 -17 44 -17q77 0 132 161z" />
<glyph horiz-adv-x="1064" vert-adv-y="2555" d="M669 1634l187 256h175l-273 -256h-89z" />
<glyph horiz-adv-x="1064" vert-adv-y="2555" d="M755 1968q88 0 141 -61q44 -49 44 -130q0 -79 -42 -124q-52 -58 -146 -58t-146 58q-42 47 -42 124q0 81 43 130q54 61 148 61zM754 1897q-61 0 -90 -41q-23 -32 -23 -74q0 -43 23 -75q30 -41 88 -41q57 0 88 41q23 30 23 75q0 44 -23 74q-31 41 -86 41z" />
<glyph horiz-adv-x="1064" vert-adv-y="2555" d="M553 1855q46 0 70 -28q22 -25 22 -65q0 -94 -94 -94q-93 0 -93 95q0 92 95 92zM950 1855q44 0 69 -28q22 -24 22 -65q0 -94 -94 -94q-93 0 -93 95q0 92 96 92z" />
<glyph horiz-adv-x="1064" vert-adv-y="2555" d="M816 1634h-89l-183 256h162z" />
<glyph horiz-adv-x="1064" vert-adv-y="2555" d="M759 1803l-243 -169h-106l268 256h176l178 -256h-92z" />
</font>
</defs>
</svg>
